<?xml version="1.0" encoding="UTF-8"?>
<svg xmlns="http://www.w3.org/2000/svg" width="210mm" height="297mm" viewBox="0 0 210 297">
<rect width="210" height="297" fill="#fff"/>
<rect x="9" y="52.5" width="32" height="32" fill="#fff" stroke="#c9c9c9" stroke-width="0.25"/>
<g transform="translate(17.64 60.5)"><g transform="scale(0.83)"><path d="M -3.4 0 H 3.4" fill="none" stroke="#5a5a5a" stroke-width="1" stroke-linecap="round" stroke-linejoin="round"/></g></g>
<rect x="41" y="52.5" width="32" height="32" fill="#fff" stroke="#c9c9c9" stroke-width="0.25"/>
<g transform="translate(49.64 60.5)"><g transform="scale(0.83)"><path d="M -6.6 -1.6 h 3.2 v 3.2 h -3.2 Z" fill="none" stroke="#5a5a5a" stroke-width="0.9" stroke-linecap="round" stroke-linejoin="round"/><path d="M -1.6 -1.6 h 3.2 v 3.2 h -3.2 Z" fill="none" stroke="#5a5a5a" stroke-width="0.9" stroke-linecap="round" stroke-linejoin="round"/><path d="M 3.4 -1.6 h 3.2 v 3.2 h -3.2 Z" fill="none" stroke="#5a5a5a" stroke-width="0.9" stroke-linecap="round" stroke-linejoin="round"/><path d="M -3.4 -4.8 H 3" fill="none" stroke="#5a5a5a" stroke-width="0.9" stroke-linecap="round" stroke-linejoin="round"/><path d="M 1.35 -6.05 L 3.4 -4.8 L 1.35 -3.55" fill="none" stroke="#5a5a5a" stroke-width="0.9" stroke-linecap="round" stroke-linejoin="round"/><path d="M 6.6 3.4 C 6.6 7.4 -6.6 7.4 -6.6 3.8" fill="none" stroke="#5a5a5a" stroke-width="0.9" stroke-linecap="round" stroke-linejoin="round"/><path d="M -7.65 5.11 L -6.6 3.4 L -5.55 5.11" fill="none" stroke="#5a5a5a" stroke-width="0.9" stroke-linecap="round" stroke-linejoin="round"/></g></g>
<rect x="73" y="52.5" width="32" height="32" fill="#fff" stroke="#c9c9c9" stroke-width="0.25"/>
<g transform="translate(81.64 60.5)"><g transform="scale(0.83)"><text x="0" y="2.3" font-family="Helvetica, Arial, sans-serif" font-size="6.4" font-weight="bold" text-anchor="middle" fill="#5a5a5a" letter-spacing="0.2">2048</text></g></g>
<rect x="105" y="52.5" width="32" height="32" fill="#f1f1f1" stroke="#c9c9c9" stroke-width="0.25"/>
<g transform="translate(113.64 60.5)"><g transform="scale(0.83)"><path d="M 0.3 -3.1 h 2.8 v 2.8 h -2.8 Z" fill="none" stroke="#5a5a5a" stroke-width="0.9" stroke-linecap="round" stroke-linejoin="round"/><path d="M -3.1 -3.1 h 2.8 v 2.8 h -2.8 Z" fill="none" stroke="#5a5a5a" stroke-width="0.9" stroke-linecap="round" stroke-linejoin="round"/><path d="M 0.3 0.3 h 2.8 v 2.8 h -2.8 Z" fill="none" stroke="#5a5a5a" stroke-width="0.9" stroke-linecap="round" stroke-linejoin="round"/><path d="M -3.1 0.3 h 2.8 v 2.8 h -2.8 Z" fill="none" stroke="#5a5a5a" stroke-width="0.9" stroke-linecap="round" stroke-linejoin="round"/><path d="M -5.24 -3.67 A 6.4 6.4 0 1 1 1.11 6.3" fill="none" stroke="#5a5a5a" stroke-width="0.9" stroke-linecap="round" stroke-linejoin="round"/><path d="M 3.16 7.11 L 1.11 6.3 L 2.76 4.84" fill="none" stroke="#5a5a5a" stroke-width="0.9" stroke-linecap="round" stroke-linejoin="round"/></g></g>
<rect x="137" y="52.5" width="32" height="32" fill="#f1f1f1" stroke="#c9c9c9" stroke-width="0.25"/>
<g transform="translate(145.64 60.5)"><g transform="scale(0.83)"><path d="M -6.8 4.8 L -2 -4.8 L 1.2 0.9 L 2.9 -1.4 L 6.8 4.8 Z" fill="none" stroke="#5a5a5a" stroke-width="1" stroke-linecap="round" stroke-linejoin="round"/></g></g>
<rect x="169" y="52.5" width="32" height="32" fill="#f1f1f1" stroke="#c9c9c9" stroke-width="0.25"/>
<g transform="translate(177.64 60.5)"><g transform="scale(0.83)"><path d="M -4.9 -5.6 V 1.2 A 4.9 4.9 0 0 0 4.9 1.2 V -5.6 H 2.1 V 1.2 A 2.1 2.1 0 0 1 -2.1 1.2 V -5.6 Z" fill="none" stroke="#5a5a5a" stroke-width="0.9" stroke-linecap="round" stroke-linejoin="round"/><path d="M -4.9 -5.6 h 2.8 v 2.2 h -2.8 Z" fill="#5a5a5a" stroke="#5a5a5a" stroke-width="0.9" stroke-linecap="round" stroke-linejoin="round"/><path d="M 2.1 -5.6 h 2.8 v 2.2 h -2.8 Z" fill="#5a5a5a" stroke="#5a5a5a" stroke-width="0.9" stroke-linecap="round" stroke-linejoin="round"/></g></g>
<rect x="9" y="84.5" width="32" height="32" fill="#fff" stroke="#c9c9c9" stroke-width="0.25"/>
<g transform="translate(17.64 92.5)"><g transform="scale(0.83)"><path d="M 0.3 -3.1 h 2.8 v 2.8 h -2.8 Z" fill="none" stroke="#5a5a5a" stroke-width="0.9" stroke-linecap="round" stroke-linejoin="round"/><path d="M -3.1 -3.1 h 2.8 v 2.8 h -2.8 Z" fill="none" stroke="#5a5a5a" stroke-width="0.9" stroke-linecap="round" stroke-linejoin="round"/><path d="M 0.3 0.3 h 2.8 v 2.8 h -2.8 Z" fill="none" stroke="#5a5a5a" stroke-width="0.9" stroke-linecap="round" stroke-linejoin="round"/><path d="M -3.1 0.3 h 2.8 v 2.8 h -2.8 Z" fill="none" stroke="#5a5a5a" stroke-width="0.9" stroke-linecap="round" stroke-linejoin="round"/><path d="M -5.24 -3.67 A 6.4 6.4 0 1 1 1.11 6.3" fill="none" stroke="#5a5a5a" stroke-width="0.9" stroke-linecap="round" stroke-linejoin="round"/><path d="M 3.16 7.11 L 1.11 6.3 L 2.76 4.84" fill="none" stroke="#5a5a5a" stroke-width="0.9" stroke-linecap="round" stroke-linejoin="round"/></g></g>
<rect x="41" y="84.5" width="32" height="32" fill="#fff" stroke="#c9c9c9" stroke-width="0.25"/>
<g transform="translate(49.64 92.5)"><g transform="scale(0.83)"><path d="M -6.8 4.8 L -2 -4.8 L 1.2 0.9 L 2.9 -1.4 L 6.8 4.8 Z" fill="none" stroke="#5a5a5a" stroke-width="1" stroke-linecap="round" stroke-linejoin="round"/></g></g>
<rect x="73" y="84.5" width="32" height="32" fill="#fff" stroke="#c9c9c9" stroke-width="0.25"/>
<g transform="translate(81.64 92.5)"><g transform="scale(0.83)"><path d="M -4.9 -5.6 V 1.2 A 4.9 4.9 0 0 0 4.9 1.2 V -5.6 H 2.1 V 1.2 A 2.1 2.1 0 0 1 -2.1 1.2 V -5.6 Z" fill="none" stroke="#5a5a5a" stroke-width="0.9" stroke-linecap="round" stroke-linejoin="round"/><path d="M -4.9 -5.6 h 2.8 v 2.2 h -2.8 Z" fill="#5a5a5a" stroke="#5a5a5a" stroke-width="0.9" stroke-linecap="round" stroke-linejoin="round"/><path d="M 2.1 -5.6 h 2.8 v 2.2 h -2.8 Z" fill="#5a5a5a" stroke="#5a5a5a" stroke-width="0.9" stroke-linecap="round" stroke-linejoin="round"/></g></g>
<rect x="105" y="84.5" width="32" height="32" fill="#f1f1f1" stroke="#c9c9c9" stroke-width="0.25"/>
<g transform="translate(113.64 92.5)"><g transform="scale(0.83)"><path d="M -2.8 2.4 C -4.6 0.2 -1 -1.4 -2.8 -3.8" fill="none" stroke="#5a5a5a" stroke-width="0.9" stroke-linecap="round" stroke-linejoin="round"/><path d="M 0 2.4 C -1.8 0.2 1.8 -1.4 0 -3.8" fill="none" stroke="#5a5a5a" stroke-width="0.9" stroke-linecap="round" stroke-linejoin="round"/><path d="M 2.8 2.4 C 1 0.2 4.6 -1.4 2.8 -3.8" fill="none" stroke="#5a5a5a" stroke-width="0.9" stroke-linecap="round" stroke-linejoin="round"/><path d="M -4.2 5.4 A 4.2 3.4 0 0 1 4.2 5.4 Z" fill="none" stroke="#5a5a5a" stroke-width="1" stroke-linecap="round" stroke-linejoin="round"/></g></g>
<rect x="137" y="84.5" width="32" height="32" fill="#f1f1f1" stroke="#c9c9c9" stroke-width="0.25"/>
<g transform="translate(145.64 92.5)"><g transform="scale(0.83)"><path d="M -3.4 0 H 3.4" fill="none" stroke="#5a5a5a" stroke-width="1" stroke-linecap="round" stroke-linejoin="round"/></g></g>
<rect x="169" y="84.5" width="32" height="32" fill="#f1f1f1" stroke="#c9c9c9" stroke-width="0.25"/>
<g transform="translate(177.64 92.5)"><g transform="scale(0.83)"><path d="M -6.6 -1.6 h 3.2 v 3.2 h -3.2 Z" fill="none" stroke="#5a5a5a" stroke-width="0.9" stroke-linecap="round" stroke-linejoin="round"/><path d="M -1.6 -1.6 h 3.2 v 3.2 h -3.2 Z" fill="none" stroke="#5a5a5a" stroke-width="0.9" stroke-linecap="round" stroke-linejoin="round"/><path d="M 3.4 -1.6 h 3.2 v 3.2 h -3.2 Z" fill="none" stroke="#5a5a5a" stroke-width="0.9" stroke-linecap="round" stroke-linejoin="round"/><path d="M -3.4 -4.8 H 3" fill="none" stroke="#5a5a5a" stroke-width="0.9" stroke-linecap="round" stroke-linejoin="round"/><path d="M 1.35 -6.05 L 3.4 -4.8 L 1.35 -3.55" fill="none" stroke="#5a5a5a" stroke-width="0.9" stroke-linecap="round" stroke-linejoin="round"/><path d="M 6.6 3.4 C 6.6 7.4 -6.6 7.4 -6.6 3.8" fill="none" stroke="#5a5a5a" stroke-width="0.9" stroke-linecap="round" stroke-linejoin="round"/><path d="M -7.65 5.11 L -6.6 3.4 L -5.55 5.11" fill="none" stroke="#5a5a5a" stroke-width="0.9" stroke-linecap="round" stroke-linejoin="round"/></g></g>
<rect x="9" y="116.5" width="32" height="32" fill="#fff" stroke="#c9c9c9" stroke-width="0.25"/>
<g transform="translate(17.64 124.5)"><g transform="scale(0.83)"><path d="M -2.8 2.4 C -4.6 0.2 -1 -1.4 -2.8 -3.8" fill="none" stroke="#5a5a5a" stroke-width="0.9" stroke-linecap="round" stroke-linejoin="round"/><path d="M 0 2.4 C -1.8 0.2 1.8 -1.4 0 -3.8" fill="none" stroke="#5a5a5a" stroke-width="0.9" stroke-linecap="round" stroke-linejoin="round"/><path d="M 2.8 2.4 C 1 0.2 4.6 -1.4 2.8 -3.8" fill="none" stroke="#5a5a5a" stroke-width="0.9" stroke-linecap="round" stroke-linejoin="round"/><path d="M -4.2 5.4 A 4.2 3.4 0 0 1 4.2 5.4 Z" fill="none" stroke="#5a5a5a" stroke-width="1" stroke-linecap="round" stroke-linejoin="round"/></g></g>
<rect x="41" y="116.5" width="32" height="32" fill="#fff" stroke="#c9c9c9" stroke-width="0.25"/>
<g transform="translate(49.64 124.5)"><g transform="scale(0.83)"><path d="M -3.4 0 H 3.4" fill="none" stroke="#5a5a5a" stroke-width="1" stroke-linecap="round" stroke-linejoin="round"/></g></g>
<rect x="73" y="116.5" width="32" height="32" fill="#fff" stroke="#c9c9c9" stroke-width="0.25"/>
<g transform="translate(81.64 124.5)"><g transform="scale(0.83)"><path d="M -6.6 -1.6 h 3.2 v 3.2 h -3.2 Z" fill="none" stroke="#5a5a5a" stroke-width="0.9" stroke-linecap="round" stroke-linejoin="round"/><path d="M -1.6 -1.6 h 3.2 v 3.2 h -3.2 Z" fill="none" stroke="#5a5a5a" stroke-width="0.9" stroke-linecap="round" stroke-linejoin="round"/><path d="M 3.4 -1.6 h 3.2 v 3.2 h -3.2 Z" fill="none" stroke="#5a5a5a" stroke-width="0.9" stroke-linecap="round" stroke-linejoin="round"/><path d="M -3.4 -4.8 H 3" fill="none" stroke="#5a5a5a" stroke-width="0.9" stroke-linecap="round" stroke-linejoin="round"/><path d="M 1.35 -6.05 L 3.4 -4.8 L 1.35 -3.55" fill="none" stroke="#5a5a5a" stroke-width="0.9" stroke-linecap="round" stroke-linejoin="round"/><path d="M 6.6 3.4 C 6.6 7.4 -6.6 7.4 -6.6 3.8" fill="none" stroke="#5a5a5a" stroke-width="0.9" stroke-linecap="round" stroke-linejoin="round"/><path d="M -7.65 5.11 L -6.6 3.4 L -5.55 5.11" fill="none" stroke="#5a5a5a" stroke-width="0.9" stroke-linecap="round" stroke-linejoin="round"/></g></g>
<rect x="105" y="116.5" width="32" height="32" fill="#f1f1f1" stroke="#c9c9c9" stroke-width="0.25"/>
<g transform="translate(113.64 124.5)"><g transform="scale(0.83)"><text x="0" y="2.3" font-family="Helvetica, Arial, sans-serif" font-size="6.4" font-weight="bold" text-anchor="middle" fill="#5a5a5a" letter-spacing="0.2">2048</text></g></g>
<rect x="137" y="116.5" width="32" height="32" fill="#f1f1f1" stroke="#c9c9c9" stroke-width="0.25"/>
<g transform="translate(145.64 124.5)"><g transform="scale(0.83)"><path d="M 0.3 -3.1 h 2.8 v 2.8 h -2.8 Z" fill="none" stroke="#5a5a5a" stroke-width="0.9" stroke-linecap="round" stroke-linejoin="round"/><path d="M -3.1 -3.1 h 2.8 v 2.8 h -2.8 Z" fill="none" stroke="#5a5a5a" stroke-width="0.9" stroke-linecap="round" stroke-linejoin="round"/><path d="M 0.3 0.3 h 2.8 v 2.8 h -2.8 Z" fill="none" stroke="#5a5a5a" stroke-width="0.9" stroke-linecap="round" stroke-linejoin="round"/><path d="M -3.1 0.3 h 2.8 v 2.8 h -2.8 Z" fill="none" stroke="#5a5a5a" stroke-width="0.9" stroke-linecap="round" stroke-linejoin="round"/><path d="M -5.24 -3.67 A 6.4 6.4 0 1 1 1.11 6.3" fill="none" stroke="#5a5a5a" stroke-width="0.9" stroke-linecap="round" stroke-linejoin="round"/><path d="M 3.16 7.11 L 1.11 6.3 L 2.76 4.84" fill="none" stroke="#5a5a5a" stroke-width="0.9" stroke-linecap="round" stroke-linejoin="round"/></g></g>
<rect x="169" y="116.5" width="32" height="32" fill="#f1f1f1" stroke="#c9c9c9" stroke-width="0.25"/>
<g transform="translate(177.64 124.5)"><g transform="scale(0.83)"><path d="M -6.8 4.8 L -2 -4.8 L 1.2 0.9 L 2.9 -1.4 L 6.8 4.8 Z" fill="none" stroke="#5a5a5a" stroke-width="1" stroke-linecap="round" stroke-linejoin="round"/></g></g>
<rect x="9" y="148.5" width="32" height="32" fill="#f1f1f1" stroke="#c9c9c9" stroke-width="0.25"/>
<g transform="translate(17.64 156.5)"><g transform="scale(0.83)"><text x="0" y="2.3" font-family="Helvetica, Arial, sans-serif" font-size="6.4" font-weight="bold" text-anchor="middle" fill="#5a5a5a" letter-spacing="0.2">2048</text></g></g>
<rect x="41" y="148.5" width="32" height="32" fill="#f1f1f1" stroke="#c9c9c9" stroke-width="0.25"/>
<g transform="translate(49.64 156.5)"><g transform="scale(0.83)"><path d="M 0.3 -3.1 h 2.8 v 2.8 h -2.8 Z" fill="none" stroke="#5a5a5a" stroke-width="0.9" stroke-linecap="round" stroke-linejoin="round"/><path d="M -3.1 -3.1 h 2.8 v 2.8 h -2.8 Z" fill="none" stroke="#5a5a5a" stroke-width="0.9" stroke-linecap="round" stroke-linejoin="round"/><path d="M 0.3 0.3 h 2.8 v 2.8 h -2.8 Z" fill="none" stroke="#5a5a5a" stroke-width="0.9" stroke-linecap="round" stroke-linejoin="round"/><path d="M -3.1 0.3 h 2.8 v 2.8 h -2.8 Z" fill="none" stroke="#5a5a5a" stroke-width="0.9" stroke-linecap="round" stroke-linejoin="round"/><path d="M -5.24 -3.67 A 6.4 6.4 0 1 1 1.11 6.3" fill="none" stroke="#5a5a5a" stroke-width="0.9" stroke-linecap="round" stroke-linejoin="round"/><path d="M 3.16 7.11 L 1.11 6.3 L 2.76 4.84" fill="none" stroke="#5a5a5a" stroke-width="0.9" stroke-linecap="round" stroke-linejoin="round"/></g></g>
<rect x="73" y="148.5" width="32" height="32" fill="#f1f1f1" stroke="#c9c9c9" stroke-width="0.25"/>
<g transform="translate(81.64 156.5)"><g transform="scale(0.83)"><path d="M -6.8 4.8 L -2 -4.8 L 1.2 0.9 L 2.9 -1.4 L 6.8 4.8 Z" fill="none" stroke="#5a5a5a" stroke-width="1" stroke-linecap="round" stroke-linejoin="round"/></g></g>
<rect x="105" y="148.5" width="32" height="32" fill="#fff" stroke="#c9c9c9" stroke-width="0.25"/>
<g transform="translate(113.64 156.5)"><g transform="scale(0.83)"><path d="M -4.9 -5.6 V 1.2 A 4.9 4.9 0 0 0 4.9 1.2 V -5.6 H 2.1 V 1.2 A 2.1 2.1 0 0 1 -2.1 1.2 V -5.6 Z" fill="none" stroke="#5a5a5a" stroke-width="0.9" stroke-linecap="round" stroke-linejoin="round"/><path d="M -4.9 -5.6 h 2.8 v 2.2 h -2.8 Z" fill="#5a5a5a" stroke="#5a5a5a" stroke-width="0.9" stroke-linecap="round" stroke-linejoin="round"/><path d="M 2.1 -5.6 h 2.8 v 2.2 h -2.8 Z" fill="#5a5a5a" stroke="#5a5a5a" stroke-width="0.9" stroke-linecap="round" stroke-linejoin="round"/></g></g>
<rect x="137" y="148.5" width="32" height="32" fill="#fff" stroke="#c9c9c9" stroke-width="0.25"/>
<g transform="translate(145.64 156.5)"><g transform="scale(0.83)"><path d="M -2.8 2.4 C -4.6 0.2 -1 -1.4 -2.8 -3.8" fill="none" stroke="#5a5a5a" stroke-width="0.9" stroke-linecap="round" stroke-linejoin="round"/><path d="M 0 2.4 C -1.8 0.2 1.8 -1.4 0 -3.8" fill="none" stroke="#5a5a5a" stroke-width="0.9" stroke-linecap="round" stroke-linejoin="round"/><path d="M 2.8 2.4 C 1 0.2 4.6 -1.4 2.8 -3.8" fill="none" stroke="#5a5a5a" stroke-width="0.9" stroke-linecap="round" stroke-linejoin="round"/><path d="M -4.2 5.4 A 4.2 3.4 0 0 1 4.2 5.4 Z" fill="none" stroke="#5a5a5a" stroke-width="1" stroke-linecap="round" stroke-linejoin="round"/></g></g>
<rect x="169" y="148.5" width="32" height="32" fill="#fff" stroke="#c9c9c9" stroke-width="0.25"/>
<g transform="translate(177.64 156.5)"><g transform="scale(0.83)"><path d="M -3.4 0 H 3.4" fill="none" stroke="#5a5a5a" stroke-width="1" stroke-linecap="round" stroke-linejoin="round"/></g></g>
<rect x="9" y="180.5" width="32" height="32" fill="#f1f1f1" stroke="#c9c9c9" stroke-width="0.25"/>
<g transform="translate(17.64 188.5)"><g transform="scale(0.83)"><path d="M -4.9 -5.6 V 1.2 A 4.9 4.9 0 0 0 4.9 1.2 V -5.6 H 2.1 V 1.2 A 2.1 2.1 0 0 1 -2.1 1.2 V -5.6 Z" fill="none" stroke="#5a5a5a" stroke-width="0.9" stroke-linecap="round" stroke-linejoin="round"/><path d="M -4.9 -5.6 h 2.8 v 2.2 h -2.8 Z" fill="#5a5a5a" stroke="#5a5a5a" stroke-width="0.9" stroke-linecap="round" stroke-linejoin="round"/><path d="M 2.1 -5.6 h 2.8 v 2.2 h -2.8 Z" fill="#5a5a5a" stroke="#5a5a5a" stroke-width="0.9" stroke-linecap="round" stroke-linejoin="round"/></g></g>
<rect x="41" y="180.5" width="32" height="32" fill="#f1f1f1" stroke="#c9c9c9" stroke-width="0.25"/>
<g transform="translate(49.64 188.5)"><g transform="scale(0.83)"><path d="M -2.8 2.4 C -4.6 0.2 -1 -1.4 -2.8 -3.8" fill="none" stroke="#5a5a5a" stroke-width="0.9" stroke-linecap="round" stroke-linejoin="round"/><path d="M 0 2.4 C -1.8 0.2 1.8 -1.4 0 -3.8" fill="none" stroke="#5a5a5a" stroke-width="0.9" stroke-linecap="round" stroke-linejoin="round"/><path d="M 2.8 2.4 C 1 0.2 4.6 -1.4 2.8 -3.8" fill="none" stroke="#5a5a5a" stroke-width="0.9" stroke-linecap="round" stroke-linejoin="round"/><path d="M -4.2 5.4 A 4.2 3.4 0 0 1 4.2 5.4 Z" fill="none" stroke="#5a5a5a" stroke-width="1" stroke-linecap="round" stroke-linejoin="round"/></g></g>
<rect x="73" y="180.5" width="32" height="32" fill="#f1f1f1" stroke="#c9c9c9" stroke-width="0.25"/>
<g transform="translate(81.64 188.5)"><g transform="scale(0.83)"><path d="M -3.4 0 H 3.4" fill="none" stroke="#5a5a5a" stroke-width="1" stroke-linecap="round" stroke-linejoin="round"/></g></g>
<rect x="105" y="180.5" width="32" height="32" fill="#fff" stroke="#c9c9c9" stroke-width="0.25"/>
<g transform="translate(113.64 188.5)"><g transform="scale(0.83)"><path d="M -6.6 -1.6 h 3.2 v 3.2 h -3.2 Z" fill="none" stroke="#5a5a5a" stroke-width="0.9" stroke-linecap="round" stroke-linejoin="round"/><path d="M -1.6 -1.6 h 3.2 v 3.2 h -3.2 Z" fill="none" stroke="#5a5a5a" stroke-width="0.9" stroke-linecap="round" stroke-linejoin="round"/><path d="M 3.4 -1.6 h 3.2 v 3.2 h -3.2 Z" fill="none" stroke="#5a5a5a" stroke-width="0.9" stroke-linecap="round" stroke-linejoin="round"/><path d="M -3.4 -4.8 H 3" fill="none" stroke="#5a5a5a" stroke-width="0.9" stroke-linecap="round" stroke-linejoin="round"/><path d="M 1.35 -6.05 L 3.4 -4.8 L 1.35 -3.55" fill="none" stroke="#5a5a5a" stroke-width="0.9" stroke-linecap="round" stroke-linejoin="round"/><path d="M 6.6 3.4 C 6.6 7.4 -6.6 7.4 -6.6 3.8" fill="none" stroke="#5a5a5a" stroke-width="0.9" stroke-linecap="round" stroke-linejoin="round"/><path d="M -7.65 5.11 L -6.6 3.4 L -5.55 5.11" fill="none" stroke="#5a5a5a" stroke-width="0.9" stroke-linecap="round" stroke-linejoin="round"/></g></g>
<rect x="137" y="180.5" width="32" height="32" fill="#fff" stroke="#c9c9c9" stroke-width="0.25"/>
<g transform="translate(145.64 188.5)"><g transform="scale(0.83)"><text x="0" y="2.3" font-family="Helvetica, Arial, sans-serif" font-size="6.4" font-weight="bold" text-anchor="middle" fill="#5a5a5a" letter-spacing="0.2">2048</text></g></g>
<rect x="169" y="180.5" width="32" height="32" fill="#fff" stroke="#c9c9c9" stroke-width="0.25"/>
<g transform="translate(177.64 188.5)"><g transform="scale(0.83)"><path d="M 0.3 -3.1 h 2.8 v 2.8 h -2.8 Z" fill="none" stroke="#5a5a5a" stroke-width="0.9" stroke-linecap="round" stroke-linejoin="round"/><path d="M -3.1 -3.1 h 2.8 v 2.8 h -2.8 Z" fill="none" stroke="#5a5a5a" stroke-width="0.9" stroke-linecap="round" stroke-linejoin="round"/><path d="M 0.3 0.3 h 2.8 v 2.8 h -2.8 Z" fill="none" stroke="#5a5a5a" stroke-width="0.9" stroke-linecap="round" stroke-linejoin="round"/><path d="M -3.1 0.3 h 2.8 v 2.8 h -2.8 Z" fill="none" stroke="#5a5a5a" stroke-width="0.9" stroke-linecap="round" stroke-linejoin="round"/><path d="M -5.24 -3.67 A 6.4 6.4 0 1 1 1.11 6.3" fill="none" stroke="#5a5a5a" stroke-width="0.9" stroke-linecap="round" stroke-linejoin="round"/><path d="M 3.16 7.11 L 1.11 6.3 L 2.76 4.84" fill="none" stroke="#5a5a5a" stroke-width="0.9" stroke-linecap="round" stroke-linejoin="round"/></g></g>
<rect x="9" y="212.5" width="32" height="32" fill="#f1f1f1" stroke="#c9c9c9" stroke-width="0.25"/>
<g transform="translate(17.64 220.5)"><g transform="scale(0.83)"><path d="M -6.6 -1.6 h 3.2 v 3.2 h -3.2 Z" fill="none" stroke="#5a5a5a" stroke-width="0.9" stroke-linecap="round" stroke-linejoin="round"/><path d="M -1.6 -1.6 h 3.2 v 3.2 h -3.2 Z" fill="none" stroke="#5a5a5a" stroke-width="0.9" stroke-linecap="round" stroke-linejoin="round"/><path d="M 3.4 -1.6 h 3.2 v 3.2 h -3.2 Z" fill="none" stroke="#5a5a5a" stroke-width="0.9" stroke-linecap="round" stroke-linejoin="round"/><path d="M -3.4 -4.8 H 3" fill="none" stroke="#5a5a5a" stroke-width="0.9" stroke-linecap="round" stroke-linejoin="round"/><path d="M 1.35 -6.05 L 3.4 -4.8 L 1.35 -3.55" fill="none" stroke="#5a5a5a" stroke-width="0.9" stroke-linecap="round" stroke-linejoin="round"/><path d="M 6.6 3.4 C 6.6 7.4 -6.6 7.4 -6.6 3.8" fill="none" stroke="#5a5a5a" stroke-width="0.9" stroke-linecap="round" stroke-linejoin="round"/><path d="M -7.65 5.11 L -6.6 3.4 L -5.55 5.11" fill="none" stroke="#5a5a5a" stroke-width="0.9" stroke-linecap="round" stroke-linejoin="round"/></g></g>
<rect x="41" y="212.5" width="32" height="32" fill="#f1f1f1" stroke="#c9c9c9" stroke-width="0.25"/>
<g transform="translate(49.64 220.5)"><g transform="scale(0.83)"><text x="0" y="2.3" font-family="Helvetica, Arial, sans-serif" font-size="6.4" font-weight="bold" text-anchor="middle" fill="#5a5a5a" letter-spacing="0.2">2048</text></g></g>
<rect x="73" y="212.5" width="32" height="32" fill="#f1f1f1" stroke="#c9c9c9" stroke-width="0.25"/>
<g transform="translate(81.64 220.5)"><g transform="scale(0.83)"><path d="M 0.3 -3.1 h 2.8 v 2.8 h -2.8 Z" fill="none" stroke="#5a5a5a" stroke-width="0.9" stroke-linecap="round" stroke-linejoin="round"/><path d="M -3.1 -3.1 h 2.8 v 2.8 h -2.8 Z" fill="none" stroke="#5a5a5a" stroke-width="0.9" stroke-linecap="round" stroke-linejoin="round"/><path d="M 0.3 0.3 h 2.8 v 2.8 h -2.8 Z" fill="none" stroke="#5a5a5a" stroke-width="0.9" stroke-linecap="round" stroke-linejoin="round"/><path d="M -3.1 0.3 h 2.8 v 2.8 h -2.8 Z" fill="none" stroke="#5a5a5a" stroke-width="0.9" stroke-linecap="round" stroke-linejoin="round"/><path d="M -5.24 -3.67 A 6.4 6.4 0 1 1 1.11 6.3" fill="none" stroke="#5a5a5a" stroke-width="0.9" stroke-linecap="round" stroke-linejoin="round"/><path d="M 3.16 7.11 L 1.11 6.3 L 2.76 4.84" fill="none" stroke="#5a5a5a" stroke-width="0.9" stroke-linecap="round" stroke-linejoin="round"/></g></g>
<rect x="105" y="212.5" width="32" height="32" fill="#fff" stroke="#c9c9c9" stroke-width="0.25"/>
<g transform="translate(113.64 220.5)"><g transform="scale(0.83)"><path d="M -6.8 4.8 L -2 -4.8 L 1.2 0.9 L 2.9 -1.4 L 6.8 4.8 Z" fill="none" stroke="#5a5a5a" stroke-width="1" stroke-linecap="round" stroke-linejoin="round"/></g></g>
<rect x="137" y="212.5" width="32" height="32" fill="#fff" stroke="#c9c9c9" stroke-width="0.25"/>
<g transform="translate(145.64 220.5)"><g transform="scale(0.83)"><path d="M -4.9 -5.6 V 1.2 A 4.9 4.9 0 0 0 4.9 1.2 V -5.6 H 2.1 V 1.2 A 2.1 2.1 0 0 1 -2.1 1.2 V -5.6 Z" fill="none" stroke="#5a5a5a" stroke-width="0.9" stroke-linecap="round" stroke-linejoin="round"/><path d="M -4.9 -5.6 h 2.8 v 2.2 h -2.8 Z" fill="#5a5a5a" stroke="#5a5a5a" stroke-width="0.9" stroke-linecap="round" stroke-linejoin="round"/><path d="M 2.1 -5.6 h 2.8 v 2.2 h -2.8 Z" fill="#5a5a5a" stroke="#5a5a5a" stroke-width="0.9" stroke-linecap="round" stroke-linejoin="round"/></g></g>
<rect x="169" y="212.5" width="32" height="32" fill="#fff" stroke="#c9c9c9" stroke-width="0.25"/>
<g transform="translate(177.64 220.5)"><g transform="scale(0.83)"><path d="M -2.8 2.4 C -4.6 0.2 -1 -1.4 -2.8 -3.8" fill="none" stroke="#5a5a5a" stroke-width="0.9" stroke-linecap="round" stroke-linejoin="round"/><path d="M 0 2.4 C -1.8 0.2 1.8 -1.4 0 -3.8" fill="none" stroke="#5a5a5a" stroke-width="0.9" stroke-linecap="round" stroke-linejoin="round"/><path d="M 2.8 2.4 C 1 0.2 4.6 -1.4 2.8 -3.8" fill="none" stroke="#5a5a5a" stroke-width="0.9" stroke-linecap="round" stroke-linejoin="round"/><path d="M -4.2 5.4 A 4.2 3.4 0 0 1 4.2 5.4 Z" fill="none" stroke="#5a5a5a" stroke-width="1" stroke-linecap="round" stroke-linejoin="round"/></g></g>
<rect x="9" y="52.5" width="96" height="96" fill="none" stroke="#000" stroke-width="0.7"/>
<rect x="105" y="52.5" width="96" height="96" fill="none" stroke="#000" stroke-width="0.7"/>
<rect x="9" y="148.5" width="96" height="96" fill="none" stroke="#000" stroke-width="0.7"/>
<rect x="105" y="148.5" width="96" height="96" fill="none" stroke="#000" stroke-width="0.7"/>
</svg>
